<svg width="199" height="29" viewBox="0 0 199 29" fill="none" xmlns="http://www.w3.org/2000/svg">
<g id="Capa_1" clip-path="url(#clip0_239_669)">
<path id="Vector" d="M23.4541 9.376C25.3363 7.78666 27.1555 5.984 29.227 4.552C33.086 1.888 37.2579 1.13066 41.422 3.8C45.3599 6.32533 47.363 10.1147 46.7847 14.8347C46.1512 19.9973 43.4829 23.8827 38.3936 25.4907C35.1943 26.5013 32.1318 25.608 29.5056 23.648C27.3421 22.032 25.4047 20.1013 23.2202 18.184C22.5709 18.8907 21.8243 19.7307 21.0461 20.5413C18.4173 23.2747 15.4153 25.368 11.5404 25.6853C6.76389 26.0747 1.93479 22.2 0.460032 16.9173C-1.45373 10.0613 2.79966 3.09333 9.74232 2.36266C11.9084 2.136 14.4426 2.90133 16.4037 3.97333C18.9536 5.368 21.0987 7.52 23.4541 9.376ZM19.3558 14.5893C19.3479 14.2827 19.3401 13.976 19.3322 13.6693C17.3816 12.1947 15.5414 10.528 13.4516 9.296C11.2775 8.01333 8.30436 8.776 6.8743 10.5733C5.31805 12.5333 5.24182 15.1787 6.68765 17.184C8.15978 19.224 10.9936 20.1867 13.2544 18.9467C15.4258 17.7547 17.3317 16.0613 19.3532 14.5893H19.3558ZM27.5445 14.1787C29.411 16.3387 31.3326 18.2293 33.9325 19.2187C35.983 20 38.7301 19.0427 40.0418 17.2133C41.3405 15.4 41.301 12.688 39.9498 10.896C38.6407 9.15733 36.004 8.336 33.9457 9.13333C31.3589 10.1333 29.4084 11.984 27.5445 14.1813V14.1787Z" fill="url(#paint0_linear_239_669)"/>
<path id="Vector_2" d="M60.4308 22.3653H56.159V6.09065C57.7205 6.48532 59.5133 5.06132 60.7646 7.19199C63.8587 5.29865 66.8792 5.27732 69.7841 7.86665C71.9712 5.99999 74.4712 5.47732 77.2078 6.17865C79.6394 6.79999 81.2062 8.43465 81.3429 10.9147C81.5506 14.6773 81.3981 18.4613 81.3981 22.3707H77.0185C77.0185 20.056 77.0185 17.7013 77.0185 15.3467C77.0185 14.4293 77.0448 13.512 77.0054 12.5973C76.9265 10.7627 76.0721 9.81598 74.4213 9.66932C72.8492 9.53065 71.5033 10.3893 71.2825 12.04C71.0248 13.9653 71.0643 15.9333 71.0143 17.8827C70.9775 19.336 71.0064 20.792 71.0064 22.3707H66.5138C66.5138 19.1787 66.5401 16.0267 66.5033 12.872C66.477 10.6587 65.4176 9.57865 63.4618 9.63999C61.7873 9.69332 60.8488 10.7067 60.72 12.2533C60.507 14.8027 60.5123 17.3707 60.4387 19.9307C60.415 20.7067 60.436 21.4853 60.436 22.3653H60.4308Z" fill="url(#paint1_linear_239_669)"/>
<path id="Vector_3" d="M194.281 21.5786C189.615 23.6266 184.673 22.368 182.738 18.4933C181.211 15.4346 181.274 12.2986 183.317 9.49863C185.483 6.53063 188.611 5.8773 192.042 6.45863C193.225 6.65863 194.234 7.4293 195.619 6.69597C196.461 6.25063 197.717 6.6133 199.003 6.6133C199.003 8.35197 199.008 9.91997 199.003 11.488C198.992 14.6026 198.984 17.7146 198.966 20.8293C198.932 25.912 196.815 28.3093 191.834 28.9253C188.921 29.2853 185.48 28.296 183.243 26.36C183.887 25.4053 184.547 24.4293 185.259 23.3733C187.825 24.7733 190.425 25.8853 193.146 24.3813C193.919 23.9546 194.263 22.728 194.802 21.8693C194.631 21.7733 194.46 21.6773 194.289 21.5786H194.281ZM190.351 18.776C192.772 18.808 194.768 16.8506 194.776 14.4266C194.783 12.1066 192.846 10.1466 190.501 10.0986C188.017 10.048 186.192 11.9013 186.187 14.48C186.182 16.9946 187.872 18.7413 190.351 18.776Z" fill="url(#paint2_linear_239_669)"/>
<path id="Vector_4" d="M97.5232 7.33334C98.2487 6.144 99.1872 5.976 102.163 6.53067V22.6293C100.502 22.1707 98.7087 23.5547 97.4679 21.5627C93.275 23.7653 89.224 23.1947 86.7293 20.0373C84.3266 16.9973 84.3476 11.7947 86.7766 8.77867C89.3397 5.59467 93.2514 5.06667 97.5258 7.33067L97.5232 7.33334ZM93.7456 18.8853C96.3165 18.8667 97.9438 17.1653 97.9516 14.4907C97.9595 11.72 96.306 9.97067 93.6746 9.968C91.0353 9.96534 89.2976 11.7547 89.3318 14.4347C89.366 17.0987 91.1562 18.904 93.7456 18.8853Z" fill="url(#paint3_linear_239_669)"/>
<path id="Vector_5" d="M151.153 22.6641H146.81C146.81 19.5628 146.818 16.5868 146.81 13.6108C146.803 11.1361 146.045 10.0854 144.221 9.96009C142.244 9.82409 140.954 10.9601 140.838 13.3574C140.691 16.3948 140.804 19.4428 140.804 22.6241H136.44V0.496094H140.809V6.96276C142.788 6.71743 144.65 6.23743 146.484 6.32009C149.045 6.43743 150.925 8.10676 151.09 10.6614C151.345 14.5921 151.156 18.5548 151.156 22.6668L151.153 22.6641Z" fill="url(#paint4_linear_239_669)"/>
<path id="Vector_6" d="M163.624 6.16276C165.443 6.7361 167.173 5.5681 168.501 7.2881C168.929 7.0961 169.515 6.7921 170.131 6.5681C174.539 4.97343 178.248 7.34943 178.622 12.0188C178.69 12.8694 178.658 13.7254 178.661 14.5814C178.666 17.2028 178.661 19.8241 178.661 22.7681C177.265 22.7681 175.969 22.8534 174.697 22.7014C174.421 22.6694 174.063 21.7921 174.053 21.2961C173.992 18.6134 174.063 15.9254 174.024 13.2428C173.992 10.9654 173.146 10.0001 171.282 9.95743C169.416 9.91476 168.238 11.0641 168.167 13.1868C168.083 15.6854 168.001 18.1974 168.143 20.6908C168.243 22.4614 167.57 22.9841 165.98 22.7708C165.506 22.7068 164.981 22.8641 164.547 22.7148C164.187 22.5921 163.664 22.1734 163.661 21.8828C163.606 16.7761 163.622 11.6694 163.622 6.16543L163.624 6.16276Z" fill="url(#paint5_linear_239_669)"/>
<path id="Vector_7" d="M133.567 17.9841C131.556 22.0774 127.97 23.7254 123.724 22.7868C119.905 21.9414 117.076 18.4321 117.06 14.5201C117.045 10.6214 119.652 7.29877 123.509 6.30144C127.589 5.24544 131.556 6.96544 133.556 10.8214C132.465 11.2828 131.411 11.8214 130.294 12.1388C129.944 12.2374 129.347 11.8241 129.003 11.4934C127.045 9.61077 124.46 9.48811 122.731 11.2508C121.114 12.9014 121.051 15.8614 122.597 17.5868C124.203 19.3814 127.126 19.5308 128.887 17.6801C130.714 15.7574 131.855 18.0508 133.564 17.9841H133.567Z" fill="url(#paint6_linear_239_669)"/>
<path id="Vector_8" d="M111.711 5.86403C112.783 5.94403 113.661 6.01069 114.631 6.08269V9.88536C113.635 9.96003 112.704 10.0294 111.608 10.112C111.608 12.5894 111.519 15.0187 111.642 17.4374C111.711 18.768 112.071 18.888 114.526 19.2907V22.968C112.883 22.8854 111.327 22.9547 109.821 22.696C107.962 22.3787 107.139 21.16 107.1 18.9547C107.05 16.0907 107.087 13.224 107.087 10.2347C106.506 10.088 105.959 9.94936 105.307 9.78403V6.10936C105.825 6.01336 106.332 5.92003 107.024 5.79469C107.079 4.51736 107.137 3.20803 107.2 1.7627H111.521C111.582 3.07736 111.642 4.38669 111.708 5.86136L111.711 5.86403Z" fill="url(#paint7_linear_239_669)"/>
<path id="Vector_9" d="M159.72 22.6454H155.478V6.52539H159.72V22.6454Z" fill="url(#paint8_linear_239_669)"/>
<path id="Vector_10" d="M23.4542 9.376C25.3364 7.78666 27.1555 5.984 29.227 4.552C33.0861 1.888 37.258 1.13066 41.422 3.8C45.36 6.32533 47.3631 10.1147 46.7848 14.8347C46.1512 19.9973 43.483 23.8827 38.3936 25.4907C35.1944 26.5013 32.1318 25.608 29.5057 23.648C27.3422 22.032 25.4048 20.1013 23.2202 18.184C22.5709 18.8907 21.8243 19.7307 21.0462 20.5413C18.4174 23.2747 15.4153 25.368 11.5405 25.6853C6.76395 26.0747 1.93485 22.2 0.460093 16.9173C-1.45367 10.0613 2.79972 3.09333 9.74238 2.36266C11.9085 2.136 14.4427 2.90133 16.4038 3.97333C18.9537 5.368 21.0988 7.52 23.4542 9.376ZM19.3559 14.5893C19.348 14.2827 19.3401 13.976 19.3322 13.6693C17.3817 12.1947 15.5415 10.528 13.4516 9.296C11.2776 8.01333 8.30443 8.776 6.87436 10.5733C5.31811 12.5333 5.24188 15.1787 6.68772 17.184C8.15984 19.224 10.9937 20.1867 13.2545 18.9467C15.4258 17.7547 17.3317 16.0613 19.3533 14.5893H19.3559ZM27.5446 14.1787C29.411 16.3387 31.3327 18.2293 33.9326 19.2187C35.983 20 38.7301 19.0427 40.0419 17.2133C41.3405 15.4 41.3011 12.688 39.9499 10.896C38.6408 9.15733 36.0041 8.336 33.9457 9.13333C31.359 10.1333 29.4084 11.984 27.5446 14.1813V14.1787Z" fill="url(#paint9_linear_239_669)"/>
<path id="Vector_11" d="M60.4308 22.3653H56.159V6.09065C57.7205 6.48532 59.5133 5.06132 60.7646 7.19199C63.8587 5.29865 66.8792 5.27732 69.784 7.86665C71.9712 5.99999 74.4712 5.47732 77.2078 6.17865C79.6394 6.79999 81.2062 8.43465 81.3428 10.9147C81.5505 14.6773 81.3981 18.4613 81.3981 22.3707H77.0185C77.0185 20.056 77.0185 17.7013 77.0185 15.3467C77.0185 14.4293 77.0448 13.512 77.0053 12.5973C76.9265 10.7627 76.0721 9.81598 74.4212 9.66932C72.8492 9.53065 71.5033 10.3893 71.2824 12.04C71.0248 13.9653 71.0643 15.9333 71.0143 17.8827C70.9775 19.336 71.0064 20.792 71.0064 22.3707H66.5138C66.5138 19.1787 66.5401 16.0267 66.5033 12.872C66.477 10.6587 65.4176 9.57865 63.4618 9.63999C61.7872 9.69332 60.8487 10.7067 60.7199 12.2533C60.507 14.8027 60.5123 17.3707 60.4386 19.9307C60.415 20.7067 60.436 21.4853 60.436 22.3653H60.4308Z" fill="url(#paint10_linear_239_669)"/>
<path id="Vector_12" d="M194.281 21.5786C189.615 23.6266 184.673 22.368 182.738 18.4933C181.211 15.4346 181.274 12.2986 183.317 9.49863C185.483 6.53063 188.611 5.8773 192.042 6.45863C193.225 6.65863 194.234 7.4293 195.619 6.69597C196.461 6.25063 197.717 6.6133 199.003 6.6133C199.003 8.35197 199.008 9.91997 199.003 11.488C198.992 14.6026 198.984 17.7146 198.966 20.8293C198.932 25.912 196.815 28.3093 191.834 28.9253C188.921 29.2853 185.48 28.296 183.243 26.36C183.887 25.4053 184.547 24.4293 185.259 23.3733C187.825 24.7733 190.425 25.8853 193.146 24.3813C193.919 23.9546 194.263 22.728 194.802 21.8693C194.631 21.7733 194.46 21.6773 194.289 21.5786H194.281ZM190.351 18.776C192.772 18.808 194.768 16.8506 194.776 14.4266C194.783 12.1066 192.846 10.1466 190.501 10.0986C188.017 10.048 186.193 11.9013 186.187 14.48C186.182 16.9946 187.872 18.7413 190.351 18.776Z" fill="url(#paint11_linear_239_669)"/>
<path id="Vector_13" d="M97.5232 7.33334C98.2487 6.144 99.1872 5.976 102.163 6.53067V22.6293C100.502 22.1707 98.7087 23.5547 97.4679 21.5627C93.275 23.7653 89.224 23.1947 86.7293 20.0373C84.3266 16.9973 84.3476 11.7947 86.7766 8.77867C89.3397 5.59467 93.2514 5.06667 97.5258 7.33067L97.5232 7.33334ZM93.7456 18.8853C96.3165 18.8667 97.9438 17.1653 97.9516 14.4907C97.9595 11.72 96.306 9.97067 93.6746 9.968C91.0353 9.96534 89.2976 11.7547 89.3318 14.4347C89.366 17.0987 91.1562 18.904 93.7456 18.8853Z" fill="url(#paint12_linear_239_669)"/>
<path id="Vector_14" d="M151.153 22.6641H146.81C146.81 19.5628 146.818 16.5868 146.81 13.6108C146.802 11.1361 146.045 10.0854 144.221 9.96009C142.244 9.82409 140.953 10.9601 140.838 13.3574C140.691 16.3948 140.804 19.4428 140.804 22.6241H136.44V0.496094H140.809V6.96276C142.788 6.71743 144.649 6.23743 146.484 6.32009C149.045 6.43743 150.924 8.10676 151.09 10.6614C151.345 14.5921 151.156 18.5548 151.156 22.6668L151.153 22.6641Z" fill="url(#paint13_linear_239_669)"/>
<path id="Vector_15" d="M163.624 6.16276C165.443 6.7361 167.173 5.5681 168.501 7.2881C168.929 7.0961 169.515 6.7921 170.131 6.5681C174.539 4.97343 178.248 7.34943 178.622 12.0188C178.69 12.8694 178.658 13.7254 178.661 14.5814C178.666 17.2028 178.661 19.8241 178.661 22.7681C177.265 22.7681 175.969 22.8534 174.697 22.7014C174.421 22.6694 174.063 21.7921 174.053 21.2961C173.992 18.6134 174.063 15.9254 174.024 13.2428C173.992 10.9654 173.146 10.0001 171.282 9.95743C169.416 9.91476 168.238 11.0641 168.167 13.1868C168.083 15.6854 168.001 18.1974 168.143 20.6908C168.243 22.4614 167.57 22.9841 165.98 22.7708C165.507 22.7068 164.981 22.8641 164.547 22.7148C164.187 22.5921 163.664 22.1734 163.661 21.8828C163.606 16.7761 163.622 11.6694 163.622 6.16543L163.624 6.16276Z" fill="url(#paint14_linear_239_669)"/>
<path id="Vector_16" d="M133.567 17.9841C131.556 22.0774 127.97 23.7254 123.724 22.7868C119.905 21.9414 117.076 18.4321 117.06 14.5201C117.045 10.6214 119.652 7.29877 123.509 6.30144C127.589 5.24544 131.556 6.96544 133.556 10.8214C132.465 11.2828 131.411 11.8214 130.294 12.1388C129.944 12.2374 129.347 11.8241 129.003 11.4934C127.045 9.61077 124.46 9.48811 122.731 11.2508C121.114 12.9014 121.051 15.8614 122.597 17.5868C124.203 19.3814 127.126 19.5308 128.887 17.6801C130.714 15.7574 131.855 18.0508 133.564 17.9841H133.567Z" fill="url(#paint15_linear_239_669)"/>
<path id="Vector_17" d="M111.711 5.86403C112.783 5.94403 113.661 6.01069 114.631 6.08269V9.88536C113.635 9.96003 112.704 10.0294 111.608 10.112C111.608 12.5894 111.519 15.0187 111.642 17.4374C111.711 18.768 112.071 18.888 114.526 19.2907V22.968C112.883 22.8854 111.327 22.9547 109.821 22.696C107.962 22.3787 107.139 21.16 107.1 18.9547C107.05 16.0907 107.087 13.224 107.087 10.2347C106.506 10.088 105.959 9.94936 105.307 9.78403V6.10936C105.825 6.01336 106.332 5.92003 107.024 5.79469C107.079 4.51736 107.137 3.20803 107.2 1.7627H111.521C111.582 3.07736 111.642 4.38669 111.708 5.86136L111.711 5.86403Z" fill="url(#paint16_linear_239_669)"/>
<path id="Vector_18" d="M159.721 22.6454H155.478V6.52539H159.721V22.6454Z" fill="url(#paint17_linear_239_669)"/>
<path id="Vector_19" d="M157.688 3.80791e-05C159.055 0.0347047 160.075 1.08804 160.044 2.42937C160.012 3.73071 158.882 4.85071 157.607 4.84004C156.256 4.83204 155.062 3.58404 155.139 2.26137C155.215 0.960038 156.337 -0.0372953 157.686 3.80791e-05H157.688Z" fill="url(#paint18_linear_239_669)"/>
</g>
<defs>
<linearGradient id="paint0_linear_239_669" x1="-2.96473" y1="2.13647" x2="48.7186" y2="2.13647" gradientUnits="userSpaceOnUse">
<stop stop-color="#E7B04B"/>
<stop offset="1" stop-color="#F3E949"/>
</linearGradient>
<linearGradient id="paint1_linear_239_669" x1="54.5591" y1="5.83936" x2="82.4424" y2="5.83936" gradientUnits="userSpaceOnUse">
<stop stop-color="#E7B04B"/>
<stop offset="1" stop-color="#F3E949"/>
</linearGradient>
<linearGradient id="paint2_linear_239_669" x1="180.582" y1="6.26562" x2="199.683" y2="6.26562" gradientUnits="userSpaceOnUse">
<stop stop-color="#E7B04B"/>
<stop offset="1" stop-color="#F3E949"/>
</linearGradient>
<linearGradient id="paint3_linear_239_669" x1="83.8516" y1="5.94458" x2="102.837" y2="5.94458" gradientUnits="userSpaceOnUse">
<stop stop-color="#E7B04B"/>
<stop offset="1" stop-color="#F3E949"/>
</linearGradient>
<linearGradient id="paint4_linear_239_669" x1="135.505" y1="0.496094" x2="151.802" y2="0.496094" gradientUnits="userSpaceOnUse">
<stop stop-color="#E7B04B"/>
<stop offset="1" stop-color="#F3E949"/>
</linearGradient>
<linearGradient id="paint5_linear_239_669" x1="162.668" y1="6.07324" x2="179.255" y2="6.07324" gradientUnits="userSpaceOnUse">
<stop stop-color="#E7B04B"/>
<stop offset="1" stop-color="#F3E949"/>
</linearGradient>
<linearGradient id="paint6_linear_239_669" x1="116.016" y1="5.99561" x2="134.213" y2="5.99561" gradientUnits="userSpaceOnUse">
<stop stop-color="#E7B04B"/>
<stop offset="1" stop-color="#F3E949"/>
</linearGradient>
<linearGradient id="paint7_linear_239_669" x1="104.717" y1="1.7627" x2="114.996" y2="1.7627" gradientUnits="userSpaceOnUse">
<stop stop-color="#E7B04B"/>
<stop offset="1" stop-color="#F3E949"/>
</linearGradient>
<linearGradient id="paint8_linear_239_669" x1="155.209" y1="6.52539" x2="159.887" y2="6.52539" gradientUnits="userSpaceOnUse">
<stop stop-color="#E7B04B"/>
<stop offset="1" stop-color="#F3E949"/>
</linearGradient>
<linearGradient id="paint9_linear_239_669" x1="-2.96467" y1="2.13647" x2="48.7186" y2="2.13647" gradientUnits="userSpaceOnUse">
<stop stop-color="#E7B04B"/>
<stop offset="1" stop-color="#F3E949"/>
</linearGradient>
<linearGradient id="paint10_linear_239_669" x1="54.5591" y1="5.83936" x2="82.4424" y2="5.83936" gradientUnits="userSpaceOnUse">
<stop stop-color="#E7B04B"/>
<stop offset="1" stop-color="#F3E949"/>
</linearGradient>
<linearGradient id="paint11_linear_239_669" x1="180.582" y1="6.26562" x2="199.683" y2="6.26562" gradientUnits="userSpaceOnUse">
<stop stop-color="#E7B04B"/>
<stop offset="1" stop-color="#F3E949"/>
</linearGradient>
<linearGradient id="paint12_linear_239_669" x1="83.8516" y1="5.94458" x2="102.837" y2="5.94458" gradientUnits="userSpaceOnUse">
<stop stop-color="#E7B04B"/>
<stop offset="1" stop-color="#F3E949"/>
</linearGradient>
<linearGradient id="paint13_linear_239_669" x1="135.505" y1="0.496094" x2="151.802" y2="0.496094" gradientUnits="userSpaceOnUse">
<stop stop-color="#E7B04B"/>
<stop offset="1" stop-color="#F3E949"/>
</linearGradient>
<linearGradient id="paint14_linear_239_669" x1="162.668" y1="6.07324" x2="179.255" y2="6.07324" gradientUnits="userSpaceOnUse">
<stop stop-color="#E7B04B"/>
<stop offset="1" stop-color="#F3E949"/>
</linearGradient>
<linearGradient id="paint15_linear_239_669" x1="116.016" y1="5.99561" x2="134.213" y2="5.99561" gradientUnits="userSpaceOnUse">
<stop stop-color="#E7B04B"/>
<stop offset="1" stop-color="#F3E949"/>
</linearGradient>
<linearGradient id="paint16_linear_239_669" x1="104.717" y1="1.7627" x2="114.996" y2="1.7627" gradientUnits="userSpaceOnUse">
<stop stop-color="#E7B04B"/>
<stop offset="1" stop-color="#F3E949"/>
</linearGradient>
<linearGradient id="paint17_linear_239_669" x1="155.209" y1="6.52539" x2="159.887" y2="6.52539" gradientUnits="userSpaceOnUse">
<stop stop-color="#E7B04B"/>
<stop offset="1" stop-color="#F3E949"/>
</linearGradient>
<linearGradient id="paint18_linear_239_669" x1="154.825" y1="-0.000976562" x2="160.237" y2="-0.000976586" gradientUnits="userSpaceOnUse">
<stop stop-color="#E7B04B"/>
<stop offset="1" stop-color="#F3E949"/>
</linearGradient>
<clipPath id="clip0_239_669">
<rect width="199" height="29" fill="white"/>
</clipPath>
</defs>
</svg>
