<svg width="35" height="35" viewBox="0 0 35 35" fill="none" xmlns="http://www.w3.org/2000/svg">
<g id="mdi:twitter">
<path id="Vector" d="M32.7542 8.74992C31.6312 9.26034 30.4208 9.59575 29.1667 9.75617C30.45 8.98325 31.4417 7.75825 31.9083 6.28534C30.6979 7.0145 29.3562 7.52492 27.9417 7.81659C26.7896 6.56242 25.1708 5.83325 23.3333 5.83325C19.9062 5.83325 17.1062 8.63325 17.1062 12.0895C17.1062 12.5853 17.1646 13.0666 17.2667 13.5187C12.075 13.2562 7.45207 10.7624 4.37499 6.98534C3.8354 7.90409 3.52915 8.98325 3.52915 10.1208C3.52915 12.2937 4.6229 14.2187 6.31457 15.3124C5.27915 15.3124 4.31665 15.0208 3.47082 14.5833V14.627C3.47082 17.6603 5.62915 20.1978 8.48749 20.7666C7.5698 21.0177 6.60637 21.0527 5.6729 20.8687C6.069 22.1119 6.84473 23.1997 7.89105 23.9792C8.93738 24.7587 10.2017 25.1907 11.5062 25.2145C9.29486 26.9651 6.55373 27.9114 3.73332 27.8978C3.23749 27.8978 2.74165 27.8687 2.24582 27.8103C5.01665 29.5895 8.31249 30.6249 11.8417 30.6249C23.3333 30.6249 29.6479 21.0874 29.6479 12.8187C29.6479 12.5416 29.6479 12.2791 29.6333 12.002C30.8583 11.127 31.9083 10.0187 32.7542 8.74992Z" fill="url(#paint0_linear_239_662)"/>
</g>
<defs>
<linearGradient id="paint0_linear_239_662" x1="0.316076" y1="5.83325" x2="33.9488" y2="5.83325" gradientUnits="userSpaceOnUse">
<stop stop-color="#E7B04B"/>
<stop offset="1" stop-color="#F3E949"/>
</linearGradient>
</defs>
</svg>
